<svg width="1000" height="1000" viewBox="0 0 1000 1000" fill="none" xmlns="http://www.w3.org/2000/svg">
<path d="M905.458 760.341C905.458 767.927 904.112 773.555 901.42 777.226C898.729 780.896 894.446 784.445 888.573 787.871C885.147 789.828 880.865 791.786 875.726 793.744C870.587 795.457 864.959 796.925 858.841 798.148C852.723 799.617 846.239 800.718 839.387 801.452C832.78 802.186 826.172 802.553 819.565 802.553C801.946 802.553 785.429 800.228 770.012 795.579C754.595 790.685 741.136 783.466 729.635 773.922C718.378 764.134 709.447 752.021 702.839 737.583C696.232 723.145 692.929 706.383 692.929 687.295C692.929 667.229 696.477 649.733 703.574 634.805C710.915 619.878 720.458 607.52 732.204 597.732C744.195 587.699 757.776 580.235 772.948 575.341C788.365 570.447 804.149 568 820.299 568C843.547 568 861.9 571.793 875.359 579.379C889.063 586.72 895.914 596.386 895.914 608.377C895.914 614.739 894.324 620.245 891.143 624.895C885.724 632.814 874.95 632.66 866.131 628.881C863.281 627.66 860.24 626.453 857.006 625.262C847.952 621.591 837.674 619.756 826.172 619.756C805.617 619.756 789.221 625.629 776.986 637.375C764.995 649.121 759 665.394 759 686.194C759 697.451 760.591 707.239 763.772 715.559C767.198 723.635 771.725 730.364 777.353 735.748C782.981 740.887 789.466 744.802 796.807 747.494C804.149 749.941 811.979 751.164 820.299 751.164C825.683 751.164 830.455 750.675 834.615 749.696C840.7 748.264 844.159 742.515 844.159 736.264V733.611C844.159 721.614 834.433 711.889 822.436 711.889H816.417C809.307 711.889 802.727 707.989 800.478 701.244C799.255 696.839 798.643 692.19 798.643 687.295C798.643 678.486 800.6 672.123 804.516 668.208C808.676 664.293 813.937 662.335 820.299 662.335H882.333C889.674 662.335 895.303 664.415 899.218 668.575C903.378 672.491 905.458 678.119 905.458 685.46V760.341Z" fill="#D63C1E"></path>
<path d="M546.69 590.561C549.109 584.265 553.583 578.872 559.952 576.653C562.669 575.706 565.739 574.779 569.16 573.874C577.725 571.671 586.289 570.57 594.854 570.57C607.09 570.57 617.857 572.406 627.156 576.076C636.699 579.502 642.817 585.008 645.509 592.594C649.914 605.319 654.685 620.124 659.824 637.009C664.963 653.894 670.102 671.39 675.241 689.499C680.38 707.362 685.396 725.104 690.29 742.723C693.443 753.914 696.341 764.292 698.986 773.859C701.599 783.308 699.224 793.948 689.923 797.048C684.05 799.25 677.076 800.352 669.001 800.352C663.128 800.352 658.111 799.862 653.951 798.883C650.036 797.905 646.732 796.436 644.041 794.479C641.593 792.521 639.513 789.951 637.801 786.77C636.332 783.589 634.986 779.918 633.763 775.758L633.006 772.858C629.56 759.648 617.63 750.431 603.978 750.431H583.766C570.174 750.431 558.255 759.562 554.955 772.747C554.918 772.894 554.881 773.042 554.844 773.189C553.852 777.16 552.859 781.067 551.866 784.912C550.081 791.828 544.98 797.567 537.959 798.883C534.289 799.862 529.762 800.352 524.378 800.352C511.898 800.352 502.599 798.272 496.481 794.112C490.608 789.707 487.672 783.711 487.672 776.125C487.672 772.7 488.161 769.274 489.14 765.848C490.119 762.422 491.22 758.384 492.444 753.735C494.157 747.128 496.481 738.93 499.418 729.141C502.599 719.353 506.025 708.831 509.696 697.574C513.366 686.073 517.282 674.327 521.442 662.336C525.602 650.345 529.517 639.089 533.188 628.566C536.858 617.799 540.162 608.255 543.098 599.935C544.423 596.471 545.62 593.347 546.69 590.561ZM595.567 628.199C594.922 628.199 594.35 628.612 594.145 629.223C590.802 639.239 587 650.399 582.741 662.703C580.953 668.067 579.233 673.476 577.58 678.931C574.239 689.962 582.648 700.878 594.174 700.878C605.667 700.878 614.069 690.023 610.987 678.951C609.426 673.342 607.841 667.804 606.233 662.336C602.929 650.064 599.853 639.044 597.004 629.276C596.818 628.637 596.232 628.199 595.567 628.199Z" fill="#D63C1E"></path>
<path d="M481.171 776.546C481.171 784.503 478.072 792.587 470.593 795.304C469.194 795.812 467.703 796.271 466.121 796.681C459.759 798.639 452.051 799.618 442.996 799.618C433.942 799.618 425.377 798.272 417.302 795.58C409.227 792.888 402.619 786.403 397.481 776.126L361.141 701.979C357.471 694.393 354.167 687.296 351.231 680.689C348.404 674.093 345.35 666.589 342.069 658.178C341.846 657.607 341.254 657.269 340.65 657.37C339.99 657.48 339.523 658.075 339.571 658.742C340.492 671.578 340.953 684.644 340.953 697.941C341.198 711.645 341.32 725.104 341.32 738.318V782.532C341.32 790.019 336.264 796.447 328.84 797.415C323.456 798.149 318.073 798.516 312.689 798.516C307.306 798.516 302.534 798.149 298.374 797.415C294.214 796.681 290.788 795.213 288.096 793.01C285.404 790.808 283.324 787.872 281.856 784.201C280.388 780.286 279.653 775.269 279.653 769.151V595.077C279.653 588.922 281.304 582.527 286.382 579.049C288.966 577.279 291.984 575.799 295.437 574.608C302.534 572.161 310.12 570.938 318.195 570.938C327.249 570.938 335.814 572.406 343.889 575.342C352.21 578.034 358.817 584.396 363.711 594.43L400.417 668.576C404.088 676.162 407.391 683.381 410.328 690.233C413.169 696.627 416.24 704.052 419.54 712.508C419.732 712.999 420.249 713.282 420.766 713.179C421.303 713.071 421.676 712.58 421.636 712.034C420.699 699.139 420.11 686.243 419.871 673.348C419.627 660.134 419.504 646.919 419.504 633.705V586.56C419.504 579.287 424.411 573.021 431.617 572.039C437.246 571.305 442.752 570.938 448.135 570.938C458.902 570.938 467.1 572.895 472.728 576.81C478.357 580.481 481.171 588.312 481.171 600.303V776.546Z" fill="#D63C1E"></path>
<path d="M166.311 708.218C155.544 704.547 145.756 700.877 136.946 697.206C128.137 693.291 120.551 688.641 114.188 683.258C107.826 677.874 102.81 671.512 99.1389 664.17C95.713 656.584 94 647.408 94 636.641C94 615.841 101.953 599.2 117.859 586.72C134.01 574.24 156.523 568 185.399 568C195.921 568 205.709 568.734 214.764 570.202C223.818 571.671 231.526 573.995 237.889 577.177C244.496 580.113 249.635 584.028 253.305 588.923C256.976 593.572 258.811 599.078 258.811 605.44C258.811 611.803 257.343 617.309 254.406 621.958C249.191 629.781 238.474 629.847 229.579 626.801C227.244 626.001 224.753 625.243 222.105 624.528C213.051 621.836 203.14 620.49 192.373 620.49C181.361 620.49 173.286 622.081 168.147 625.262C163.008 628.198 160.438 631.991 160.438 636.641C160.438 640.311 162.029 643.37 165.21 645.817C168.391 648.02 173.163 650.1 179.526 652.057L198.98 658.297C221.983 665.639 239.602 675.06 251.837 686.561C264.317 697.818 270.557 713.234 270.557 732.811C270.557 753.611 262.359 770.496 245.964 783.466C229.568 796.191 205.465 802.553 173.653 802.553C162.396 802.553 151.874 801.574 142.085 799.617C132.542 797.904 124.099 795.334 116.758 791.908C109.661 788.238 104.033 783.833 99.873 778.694C95.9577 773.31 94 767.193 94 760.341C94 753.244 96.08 747.249 100.24 742.355C107.134 733.839 119.317 735.266 129.098 740.204C132.148 741.744 135.376 743.195 138.782 744.557C148.815 748.473 159.704 750.43 171.45 750.43C183.441 750.43 191.883 748.595 196.778 744.924C201.672 741.254 204.119 736.971 204.119 732.077C204.119 727.183 202.161 723.512 198.246 721.065C194.33 718.373 188.825 715.804 181.728 713.357L166.311 708.218Z" fill="#D63C1E"></path>
<path d="M613.984 374.49C606.489 374.49 599.435 370.625 597.178 363.478C595.71 358.829 594.976 353.934 594.976 348.796C594.976 339.252 597.056 332.4 601.216 328.24C605.621 324.08 611.249 322 618.101 322H766.107C773.601 322 780.655 325.865 782.912 333.012C784.38 337.661 785.114 342.556 785.114 347.694C785.114 357.238 782.912 364.09 778.507 368.25C774.347 372.41 768.841 374.49 761.989 374.49H751.245C734.677 374.49 721.245 387.921 721.245 404.49V531.029C721.245 538.73 716.04 545.32 708.398 546.275C702.77 547.009 697.142 547.376 691.513 547.376C685.885 547.376 680.868 546.887 676.464 545.908C672.304 545.174 668.755 543.706 665.819 541.503C662.882 539.301 660.68 536.242 659.212 532.327C657.744 528.412 657.009 523.273 657.009 516.91V404.49C657.009 387.921 643.578 374.49 627.009 374.49H613.984Z" fill="#D63C1E"></path>
<path d="M361.463 323C368.878 323 375.886 326.841 377.773 334.012C379.242 338.417 379.976 343.066 379.976 347.96C379.976 357.504 377.896 364.356 373.736 368.516C369.82 372.431 364.437 374.389 357.585 374.389H301.241C289.787 374.389 280.502 383.674 280.502 395.128C280.502 406.582 289.787 415.867 301.241 415.867H349.162C356.53 415.867 363.689 419.413 365.66 426.512C367.129 430.916 367.863 435.566 367.863 440.46C367.863 449.759 365.783 456.488 361.623 460.649C357.707 464.564 352.324 466.522 345.472 466.522H311.236C294.667 466.522 281.236 479.953 281.236 496.522V530.928C281.236 538.629 276.03 545.219 268.389 546.174C262.76 546.908 257.132 547.275 251.504 547.275C245.876 547.275 240.859 546.786 236.454 545.807C232.294 545.073 228.746 543.605 225.81 541.402C222.873 539.2 220.671 536.141 219.202 532.226C217.734 528.31 217 523.172 217 516.809V357.137C217 346.614 220.059 338.294 226.177 332.177C232.294 326.059 240.614 323 251.137 323H361.463Z" fill="#D63C1E"></path>
<path d="M550.985 191.562C589.452 175.03 624.592 149.448 641.67 156.072C666.351 165.644 656.816 194.861 641.67 212.917C626.523 230.973 555.191 265.017 498.93 265.479C441.408 265.951 403.98 239.889 368.384 216.93C332.787 193.971 339.11 156.073 368.384 156.073C385.504 156.073 407.779 172.823 434.711 186.648C435.029 187.872 435.769 188.993 436.888 189.773C439.085 191.305 440.928 194.355 442.216 198.392C443.464 202.305 443.925 206.325 443.965 208.69C444.016 211.727 446.521 214.147 449.557 214.096C452.594 214.045 455.015 211.54 454.964 208.503C454.908 205.214 454.311 200.116 452.696 195.05C452.684 195.013 452.671 194.976 452.659 194.939C459.605 197.742 466.814 200.133 474.279 201.837C474.281 201.838 474.282 201.839 474.284 201.84C476.587 203.21 478.645 206.118 480.221 210.052C481.748 213.866 482.497 217.842 482.708 220.198C482.978 223.223 485.65 225.456 488.676 225.186C491.701 224.915 493.935 222.243 493.665 219.218C493.372 215.942 492.409 210.899 490.432 205.963C490.209 205.405 489.967 204.838 489.707 204.265C492.743 204.521 495.818 204.645 498.93 204.621C500.505 204.609 502.085 204.548 503.67 204.448C504.321 205.036 505.123 205.477 506.035 205.702C508.636 206.343 511.451 208.528 514.101 211.834C516.671 215.039 518.543 218.626 519.43 220.819C520.567 223.635 523.774 224.995 526.59 223.858C529.406 222.72 530.767 219.514 529.63 216.698C528.397 213.648 526.01 209.103 522.684 204.954C521.901 203.977 521.032 202.981 520.079 202.009C525.958 200.679 531.85 198.899 537.705 196.81C538.252 197.198 538.879 197.493 539.569 197.663C542.17 198.305 544.985 200.49 547.636 203.796C550.205 207.001 552.078 210.588 552.964 212.781C554.102 215.597 557.308 216.957 560.124 215.82C562.94 214.682 564.302 211.476 563.164 208.66C561.932 205.61 559.544 201.065 556.219 196.916C554.765 195.104 553.017 193.222 550.985 191.562Z" fill="#D63C1E"></path>
<path d="M470.077 255.005C470.077 251.599 474.853 250.828 475.925 254.06L488.382 291.615C489.383 294.634 493.777 294.224 494.202 291.072L498.315 260.597C498.789 257.09 503.879 257.15 504.271 260.666L507.624 290.847C507.976 294.019 512.38 294.521 513.437 291.51L526.247 255.005C527.365 251.819 532.077 252.622 532.077 255.998V307.954C532.077 308.954 531.579 309.889 530.748 310.446L512.955 322.374C512.124 322.931 511.626 323.866 511.626 324.866V337.288H532.927L533.405 337.293C543.275 337.492 551.974 343.847 555.164 353.189L555.314 353.643L563.319 378.729L563.483 379.211C565.275 384.128 569.959 387.43 575.228 387.43H599.5C612.478 387.431 623 397.952 623 410.93V523.788L622.992 524.394C622.675 536.891 612.603 546.963 600.106 547.28L599.5 547.288H403.5C390.725 547.287 380.33 537.092 380.008 524.394L380 523.788V410.93C380 397.952 390.522 387.431 403.5 387.43H428.337L428.829 387.421C433.903 387.222 438.375 383.963 440.102 379.154L449.545 352.847L449.706 352.412C453.173 343.321 461.901 337.288 471.663 337.288H492.466V324.901C492.466 323.882 491.949 322.932 491.092 322.38L471.452 309.721C470.595 309.168 470.077 308.218 470.077 307.198V255.005ZM501.077 400.43C468.969 400.43 443.077 426.025 443.077 457.43C443.077 488.834 468.969 514.429 501.077 514.43L501.828 514.425C533.588 514.029 559.077 488.589 559.077 457.43C559.077 426.27 533.588 400.83 501.828 400.434L501.077 400.43ZM501.077 412.43C525.378 412.43 545.077 432.129 545.077 456.43C545.077 480.73 525.378 500.43 501.077 500.43C476.777 500.429 457.077 480.73 457.077 456.43C457.077 432.129 476.777 412.43 501.077 412.43ZM493.567 428.775C492.588 426.491 489.942 425.433 487.658 426.412L489.326 430.305C487.757 426.643 487.662 426.425 487.655 426.413L487.651 426.414C487.649 426.415 487.647 426.417 487.645 426.418C487.639 426.42 487.632 426.423 487.625 426.426C487.611 426.432 487.593 426.44 487.572 426.449C487.531 426.467 487.475 426.492 487.409 426.522C487.276 426.583 487.093 426.669 486.869 426.778C486.421 426.997 485.801 427.315 485.062 427.733C483.589 428.567 481.602 429.822 479.536 431.52C475.469 434.864 470.668 440.288 469.456 447.964C469.069 450.418 470.745 452.722 473.199 453.11C475.654 453.497 477.959 451.821 478.347 449.367C479.076 444.749 482.04 441.114 485.252 438.472C486.825 437.179 488.357 436.209 489.493 435.566C490.057 435.247 490.515 435.014 490.817 434.866C490.968 434.793 491.08 434.74 491.146 434.71C491.179 434.695 491.202 434.685 491.212 434.68L491.213 434.68L491.209 434.681L491.206 434.682L491.205 434.681C493.487 433.702 494.545 431.058 493.567 428.775Z" fill="#D63C1E"></path>
</svg>